<svg width="16" height="16" viewBox="0 0 16 16" fill="none" xmlns="http://www.w3.org/2000/svg">
<path d="M11.9896 9.67089C12.0046 9.9204 12.2651 10.0887 12.4769 9.95586C13.7923 9.13057 14.6668 7.66738 14.6668 5.99992C14.6668 3.42259 12.5775 1.33325 10.0002 1.33325C8.3327 1.33325 6.8695 2.20779 6.04421 3.52321C5.91137 3.73495 6.07967 3.99546 6.32918 4.01046C9.31307 4.18984 11.8102 6.68958 11.9896 9.67089Z" fill="#3772FF"/>
<path d="M10.6668 9.99992C10.6668 12.5772 8.57749 14.6666 6.00016 14.6666C3.42283 14.6666 1.3335 12.5772 1.3335 9.99992C1.3335 7.42259 3.42283 5.33325 6.00016 5.33325C8.57749 5.33325 10.6668 7.42259 10.6668 9.99992Z" fill="#3772FF"/>
</svg>
