<svg width="32" height="32" viewBox="0 0 32 32" fill="none" xmlns="http://www.w3.org/2000/svg">
<g clip-path="url(#clip0_1_2687)">
<path fill-rule="evenodd" clip-rule="evenodd" d="M31.4233 12.6758L31.4673 12.7918C32.093 14.4296 32.1693 16.2264 31.6848 17.9114C31.2003 19.5964 30.1813 21.0783 28.7813 22.1338L28.7613 22.1498L22.0893 27.1438L18.8033 29.6278L16.8053 31.1378C16.5711 31.3145 16.2857 31.41 15.9923 31.41C15.699 31.41 15.4136 31.3145 15.1793 31.1378L13.1813 29.6278L9.89534 27.1438L3.26934 22.1778L3.23334 22.1498L3.21734 22.1358C1.81728 21.0799 0.798386 19.5976 0.314265 17.9122C-0.169856 16.2268 -0.0929672 14.4297 0.533341 12.7918L0.579341 12.6778L4.93134 1.31577C5.00745 1.11989 5.13668 0.949122 5.30449 0.82264C5.47231 0.696158 5.67208 0.618978 5.88134 0.599772C6.15091 0.572105 6.42161 0.640356 6.64584 0.792526C6.87007 0.944695 7.03348 1.17104 7.10734 1.43177L10.0473 10.4318H21.9533L24.8933 1.43177C24.9585 1.20074 25.0944 0.995901 25.2819 0.845979C25.4694 0.696058 25.6991 0.60857 25.9388 0.595779C26.1785 0.582988 26.4163 0.645536 26.6186 0.774654C26.821 0.903773 26.9779 1.09299 27.0673 1.31577L31.4233 12.6758ZM22.5593 17.0618C22.8243 16.7774 22.9685 16.4013 22.9617 16.0127C22.9548 15.6241 22.7974 15.2534 22.5226 14.9785C22.2478 14.7037 21.877 14.5463 21.4884 14.5394C21.0998 14.5326 20.7237 14.6768 20.4393 14.9418L14.9993 20.3818L12.5593 17.9418C12.422 17.7944 12.2564 17.6762 12.0724 17.5942C11.8884 17.5122 11.6898 17.4681 11.4884 17.4646C11.287 17.461 11.0869 17.4981 10.9001 17.5735C10.7134 17.649 10.5437 17.7613 10.4013 17.9037C10.2588 18.0461 10.1465 18.2158 10.0711 18.4026C9.99565 18.5894 9.9586 18.7894 9.96216 18.9908C9.96571 19.1922 10.0098 19.3909 10.0918 19.5748C10.1738 19.7588 10.292 19.9244 10.4393 20.0618L13.9393 23.5618C14.2206 23.8427 14.6018 24.0005 14.9993 24.0005C15.3968 24.0005 15.7781 23.8427 16.0593 23.5618L22.5593 17.0618Z" fill="#3772FF"/>
</g>
<defs>
<clipPath id="clip0_1_2687">
<rect width="32" height="32" fill="white"/>
</clipPath>
</defs>
</svg>
