<svg width="32" height="12" viewBox="0 0 32 12" fill="none" xmlns="http://www.w3.org/2000/svg">
<path d="M16.5496 4.13675C16.5314 5.57625 17.8325 6.3795 18.8126 6.85712C19.8196 7.34712 20.1579 7.66137 20.1539 8.09962C20.1464 8.77025 19.3506 9.06625 18.606 9.07775C17.3069 9.09787 16.5515 8.727 15.951 8.4465L15.483 10.6364C16.0855 10.914 17.2011 11.1561 18.358 11.1667C21.0736 11.1667 22.8503 9.82625 22.8599 7.74787C22.8705 5.11012 19.2114 4.96412 19.2364 3.78512C19.245 3.42762 19.5861 3.04612 20.3336 2.94912C20.7036 2.90012 21.725 2.86262 22.883 3.39587L23.3375 1.27712C22.7148 1.05037 21.9144 0.833248 20.9179 0.833248C18.3619 0.833248 16.5641 2.192 16.5496 4.13675ZM27.7048 1.01575C27.2089 1.01575 26.791 1.305 26.6045 1.74887L22.7254 11.0111H25.439L25.979 9.51875H29.295L29.6082 11.0111H32L29.9129 1.01575H27.7048ZM28.0844 3.71587L28.8675 7.46925H26.7227L28.0844 3.71587ZM13.2595 1.01587L11.1205 11.011H13.7064L15.8444 1.01562H13.2595M9.43412 1.01562L6.74263 7.819L5.65387 2.03437C5.52612 1.38862 5.02163 1.01575 4.46138 1.01575H0.061625L0 1.306C0.90325 1.502 1.9295 1.81812 2.55125 2.15637C2.93175 2.363 3.04025 2.54362 3.16525 3.03462L5.22738 11.0111H7.96L12.1495 1.01575H9.43412" fill="url(#paint0_linear_469_5380)"/>
<defs>
<linearGradient id="paint0_linear_469_5380" x1="14.7117" y1="11.374" x2="15.0108" y2="0.761382" gradientUnits="userSpaceOnUse">
<stop stop-color="#222357"/>
<stop offset="1" stop-color="#254AA5"/>
</linearGradient>
</defs>
</svg>
