<svg width="28" height="28" viewBox="0 0 28 28" fill="none" xmlns="http://www.w3.org/2000/svg">
<path d="M24.749 22.9284C26.1851 21.2005 27.184 19.1521 27.661 16.9565C28.1381 14.761 28.0793 12.4828 27.4897 10.3148C26.9001 8.14672 25.797 6.15258 24.2737 4.50103C22.7504 2.84948 20.8517 1.58911 18.7383 0.826535C16.6248 0.0639651 14.3589 -0.17837 12.132 0.12003C9.90508 0.41843 7.78282 1.24879 5.94472 2.54086C4.10662 3.83292 2.60675 5.54869 1.57199 7.54302C0.537238 9.53735 -0.00196259 11.7516 5.36765e-06 13.9984C0.000760542 17.2645 1.15175 20.4261 3.25101 22.9284L3.23101 22.9454C3.30101 23.0294 3.38101 23.1014 3.45301 23.1844C3.54301 23.2874 3.64001 23.3843 3.73301 23.4844C4.01301 23.7884 4.30101 24.0804 4.60301 24.3544C4.69501 24.4384 4.79001 24.5163 4.88301 24.5963C5.20301 24.8723 5.53201 25.1343 5.87301 25.3783C5.91701 25.4083 5.95701 25.4473 6.00101 25.4783V25.4664C8.34311 27.1145 11.1371 27.9991 14.001 27.9991C16.8649 27.9991 19.6589 27.1145 22.001 25.4664V25.4783C22.045 25.4473 22.084 25.4083 22.129 25.3783C22.469 25.1333 22.799 24.8723 23.119 24.5963C23.212 24.5163 23.307 24.4374 23.399 24.3544C23.701 24.0794 23.989 23.7884 24.269 23.4844C24.362 23.3843 24.458 23.2874 24.549 23.1844C24.62 23.1014 24.701 23.0293 24.771 22.9443L24.749 22.9284ZM14 5.99835C14.89 5.99835 15.7601 6.26227 16.5001 6.75674C17.2401 7.2512 17.8169 7.95401 18.1575 8.77627C18.4981 9.59854 18.5872 10.5033 18.4135 11.3763C18.2399 12.2492 17.8113 13.051 17.182 13.6803C16.5527 14.3097 15.7508 14.7383 14.8779 14.9119C14.005 15.0855 13.1002 14.9964 12.2779 14.6558C11.4557 14.3152 10.7529 13.7384 10.2584 12.9984C9.76393 12.2584 9.50001 11.3884 9.50001 10.4984C9.50001 9.30488 9.97411 8.16028 10.818 7.31637C11.6619 6.47246 12.8065 5.99835 14 5.99835ZM6.00701 22.9284C6.02435 21.6153 6.55795 20.3619 7.49236 19.4393C8.42677 18.5167 9.68686 17.999 11 17.9984H17C18.3132 17.999 19.5732 18.5167 20.5076 19.4393C21.4421 20.3619 21.9757 21.6153 21.993 22.9284C19.7998 24.9047 16.9523 25.9984 14 25.9984C11.0477 25.9984 8.20016 24.9047 6.00701 22.9284Z" fill="#BBC5D2"/>
</svg>
