<svg width="154" height="96" viewBox="0 0 154 96" fill="none" xmlns="http://www.w3.org/2000/svg">
<path opacity="0.4" d="M146.251 38.2753C146.669 38.6794 147.331 38.6794 147.749 38.2753C148.046 37.9884 148.48 37.8961 148.868 38.0375C149.414 38.2367 150.02 37.9671 150.237 37.428C150.391 37.0453 150.75 36.7843 151.162 36.7558C151.742 36.7157 152.186 36.223 152.165 35.6422C152.15 35.2298 152.372 34.8452 152.737 34.6518C153.25 34.3793 153.455 33.7488 153.2 33.2266C153.019 32.8558 153.065 32.4142 153.319 32.0892C153.677 31.6315 153.608 30.9722 153.163 30.5989C152.846 30.3339 152.709 29.9115 152.809 29.5112C152.95 28.9474 152.619 28.3732 152.06 28.2135C151.663 28.1 151.366 27.77 151.295 27.3636C151.194 26.7911 150.658 26.4014 150.082 26.4828C149.674 26.5405 149.268 26.3599 149.038 26.0176C148.713 25.5355 148.064 25.3977 147.572 25.7061C147.222 25.925 146.778 25.925 146.428 25.7061C145.936 25.3977 145.287 25.5355 144.962 26.0176C144.732 26.3599 144.326 26.5405 143.918 26.4828C143.342 26.4014 142.806 26.7911 142.705 27.3636C142.634 27.77 142.337 28.1 141.94 28.2135C141.381 28.3732 141.05 28.9474 141.191 29.5112C141.291 29.9115 141.154 30.3339 140.837 30.5989C140.392 30.9722 140.323 31.6315 140.681 32.0892C140.935 32.4142 140.981 32.8558 140.8 33.2266C140.545 33.7488 140.75 34.3793 141.263 34.6518C141.628 34.8452 141.85 35.2298 141.835 35.6422C141.814 36.223 142.258 36.7157 142.838 36.7558C143.25 36.7843 143.609 37.0453 143.763 37.428C143.98 37.9671 144.586 38.2367 145.132 38.0375C145.52 37.8961 145.954 37.9884 146.251 38.2753Z" fill="black"/>
<path opacity="0.4" d="M6.25074 13.2753C6.66852 13.6794 7.33148 13.6794 7.74926 13.2753C8.04587 12.9884 8.48026 12.8961 8.86791 13.0375C9.41393 13.2367 10.0196 12.9671 10.2369 12.428C10.3912 12.0453 10.7504 11.7843 11.1621 11.7558C11.742 11.7157 12.1856 11.223 12.1648 10.6422C12.1501 10.2298 12.3721 9.8452 12.7366 9.65176C13.25 9.3793 13.4549 8.74879 13.1997 8.22659C13.0185 7.85584 13.0649 7.41418 13.3192 7.0892C13.6774 6.63147 13.6081 5.97215 13.1626 5.5989C12.8463 5.3339 12.709 4.91154 12.8092 4.51122C12.9503 3.94737 12.6188 3.37324 12.0599 3.21348C11.6632 3.10005 11.366 2.77002 11.2947 2.36358C11.1942 1.7911 10.6579 1.40143 10.0824 1.48277C9.67377 1.54053 9.26807 1.3599 9.03759 1.01761C8.71296 0.535492 8.06449 0.397655 7.57183 0.706052C7.22205 0.925004 6.77795 0.925004 6.42817 0.706052C5.93551 0.397656 5.28704 0.535492 4.96241 1.01761C4.73193 1.3599 4.32623 1.54053 3.91763 1.48277C3.34212 1.40143 2.80578 1.7911 2.70531 2.36358C2.63398 2.77002 2.33682 3.10005 1.94006 3.21348C1.38122 3.37324 1.04974 3.94737 1.1908 4.51122C1.29095 4.91154 1.15372 5.3339 0.837395 5.5989C0.391852 5.97215 0.322554 6.63147 0.680758 7.0892C0.935073 7.41418 0.981493 7.85584 0.800302 8.22659C0.545093 8.74879 0.749957 9.3793 1.26337 9.65176C1.62788 9.8452 1.84992 10.2298 1.83519 10.6422C1.81445 11.223 2.25805 11.7157 2.83789 11.7558C3.24957 11.7843 3.60885 12.0453 3.76313 12.428C3.98043 12.9671 4.58607 13.2367 5.13208 13.0375C5.51974 12.8961 5.95413 12.9884 6.25074 13.2753Z" fill="black"/>
<path d="M82.6298 9.71055C85.3454 7.08398 89.6546 7.08398 92.3702 9.71055C94.2981 11.5753 97.1217 12.1755 99.6414 11.2561C103.191 9.96114 107.127 11.7139 108.54 15.2179C109.542 17.7056 111.878 19.4023 114.554 19.5873C118.323 19.8478 121.206 23.0502 121.071 26.8258C120.976 29.5063 122.419 32.0062 124.788 33.2636C128.125 35.0346 129.457 39.1329 127.798 42.5272C126.62 44.937 126.922 47.8078 128.575 49.9202C130.903 52.8954 130.453 57.181 127.557 59.6071C125.501 61.3296 124.609 64.075 125.26 66.677C126.177 70.3421 124.022 74.0739 120.39 75.1124C117.811 75.8497 115.879 77.9949 115.415 80.6367C114.762 84.3579 111.276 86.8907 107.535 86.362C104.88 85.9866 102.242 87.1607 100.744 89.3855C98.6342 92.5193 94.4192 93.4152 91.2169 91.4107C88.9433 89.9875 86.0567 89.9875 83.7831 91.4107C80.5808 93.4152 76.3658 92.5193 74.2557 89.3855C72.7575 87.1607 70.1205 85.9866 67.4646 86.362C63.7238 86.8907 60.2376 84.3579 59.5845 80.6367C59.1208 77.9949 57.1893 75.8497 54.6104 75.1124C50.9779 74.0739 48.8233 70.3421 49.7402 66.677C50.3912 64.075 49.4992 61.3296 47.4431 59.6071C44.547 57.181 44.0966 52.8954 46.4249 49.9202C48.078 47.8078 48.3797 44.937 47.202 42.5272C45.5431 39.1329 46.8747 35.0346 50.2119 33.2636C52.5812 32.0062 54.0245 29.5063 53.9288 26.8258C53.7939 23.0502 56.6773 19.8478 60.4463 19.5873C63.1222 19.4023 65.4575 17.7056 66.4603 15.2179C67.8728 11.7138 71.8094 9.96114 75.3586 11.2561C77.8783 12.1755 80.7019 11.5753 82.6298 9.71055Z" fill="black"/>
<path d="M68.1594 49.9481L80.4485 64.559L110.211 39.5257" stroke="white" stroke-width="4"/>
<path opacity="0.4" d="M21.9113 90.4306C22.2396 90.7481 22.7604 90.7481 23.0887 90.4306C23.3218 90.2052 23.6631 90.1326 23.9676 90.2438C24.3967 90.4003 24.8725 90.1884 25.0433 89.7649C25.1645 89.4642 25.4468 89.2591 25.7702 89.2367C26.2258 89.2052 26.5744 88.8181 26.5581 88.3617C26.5465 88.0377 26.721 87.7355 27.0074 87.5835C27.4107 87.3694 27.5717 86.8741 27.3712 86.4637C27.2288 86.1724 27.2653 85.8254 27.4651 85.5701C27.7466 85.2104 27.6921 84.6924 27.342 84.3991C27.0935 84.1909 26.9857 83.8591 27.0644 83.5445C27.1752 83.1015 26.9148 82.6504 26.4757 82.5249C26.1639 82.4358 25.9304 82.1764 25.8744 81.8571C25.7955 81.4073 25.374 81.1011 24.9219 81.165C24.6008 81.2104 24.2821 81.0685 24.101 80.7996C23.8459 80.4207 23.3364 80.3124 22.9493 80.5548C22.6745 80.7268 22.3255 80.7268 22.0507 80.5548C21.6636 80.3124 21.1541 80.4207 20.899 80.7996C20.7179 81.0685 20.3992 81.2104 20.0781 81.165C19.626 81.1011 19.2045 81.4073 19.1256 81.8571C19.0696 82.1764 18.8361 82.4358 18.5243 82.5249C18.0852 82.6504 17.8248 83.1015 17.9356 83.5445C18.0143 83.8591 17.9065 84.1909 17.658 84.3991C17.3079 84.6924 17.2534 85.2104 17.5349 85.5701C17.7347 85.8254 17.7712 86.1724 17.6288 86.4637C17.4283 86.8741 17.5893 87.3694 17.9926 87.5835C18.279 87.7355 18.4535 88.0377 18.4419 88.3617C18.4256 88.8181 18.7742 89.2052 19.2298 89.2367C19.5532 89.2591 19.8355 89.4642 19.9567 89.7649C20.1275 90.1884 20.6033 90.4003 21.0324 90.2438C21.3369 90.1326 21.6782 90.2052 21.9113 90.4306Z" fill="black"/>
<path opacity="0.4" d="M127.125 75.6376C127.334 75.8397 127.666 75.8397 127.875 75.6376C128.023 75.4942 128.24 75.448 128.434 75.5188C128.707 75.6184 129.01 75.4836 129.118 75.214C129.196 75.0226 129.375 74.8921 129.581 74.8779C129.871 74.8579 130.093 74.6115 130.082 74.3211C130.075 74.1149 130.186 73.9226 130.368 73.8259C130.625 73.6896 130.727 73.3744 130.6 73.1133C130.509 72.9279 130.532 72.7071 130.66 72.5446C130.839 72.3157 130.804 71.9861 130.581 71.7995C130.423 71.667 130.355 71.4558 130.405 71.2556C130.475 70.9737 130.309 70.6866 130.03 70.6067C129.832 70.55 129.683 70.385 129.647 70.1818C129.597 69.8955 129.329 69.7007 129.041 69.7414C128.837 69.7703 128.634 69.68 128.519 69.5088C128.356 69.2677 128.032 69.1988 127.786 69.353C127.611 69.4625 127.389 69.4625 127.214 69.353C126.968 69.1988 126.644 69.2677 126.481 69.5088C126.366 69.68 126.163 69.7703 125.959 69.7414C125.671 69.7007 125.403 69.8955 125.353 70.1818C125.317 70.385 125.168 70.55 124.97 70.6067C124.691 70.6866 124.525 70.9737 124.595 71.2556C124.645 71.4558 124.577 71.667 124.419 71.7995C124.196 71.9861 124.161 72.3157 124.34 72.5446C124.468 72.7071 124.491 72.9279 124.4 73.1133C124.273 73.3744 124.375 73.6896 124.632 73.8259C124.814 73.9226 124.925 74.1149 124.918 74.3211C124.907 74.6115 125.129 74.8579 125.419 74.8779C125.625 74.8921 125.804 75.0226 125.882 75.214C125.99 75.4836 126.293 75.6184 126.566 75.5188C126.76 75.448 126.977 75.4942 127.125 75.6376Z" fill="black"/>
<path opacity="0.4" d="M17.1254 45.6376C17.3343 45.8397 17.6657 45.8397 17.8746 45.6376C18.0229 45.4942 18.2401 45.448 18.434 45.5188C18.707 45.6184 19.0098 45.4836 19.1184 45.214C19.1956 45.0226 19.3752 44.8921 19.5811 44.8779C19.871 44.8579 20.0928 44.6115 20.0824 44.3211C20.075 44.1149 20.1861 43.9226 20.3683 43.8259C20.625 43.6896 20.7275 43.3744 20.5998 43.1133C20.5093 42.9279 20.5325 42.7071 20.6596 42.5446C20.8387 42.3157 20.8041 41.9861 20.5813 41.7995C20.4231 41.667 20.3545 41.4558 20.4046 41.2556C20.4751 40.9737 20.3094 40.6866 20.03 40.6067C19.8316 40.55 19.683 40.385 19.6473 40.1818C19.5971 39.8955 19.3289 39.7007 19.0412 39.7414C18.8369 39.7703 18.634 39.68 18.5188 39.5088C18.3565 39.2677 18.0322 39.1988 17.7859 39.353C17.611 39.4625 17.389 39.4625 17.2141 39.353C16.9678 39.1988 16.6435 39.2677 16.4812 39.5088C16.366 39.68 16.1631 39.7703 15.9588 39.7414C15.6711 39.7007 15.4029 39.8955 15.3527 40.1818C15.317 40.385 15.1684 40.55 14.97 40.6067C14.6906 40.6866 14.5249 40.9737 14.5954 41.2556C14.6455 41.4558 14.5769 41.667 14.4187 41.7995C14.1959 41.9861 14.1613 42.3157 14.3404 42.5446C14.4675 42.7071 14.4907 42.9279 14.4002 43.1133C14.2725 43.3744 14.375 43.6896 14.6317 43.8259C14.8139 43.9226 14.925 44.1149 14.9176 44.3211C14.9072 44.6115 15.129 44.8579 15.4189 44.8779C15.6248 44.8921 15.8044 45.0226 15.8816 45.214C15.9902 45.4836 16.293 45.6184 16.566 45.5188C16.7599 45.448 16.9771 45.4942 17.1254 45.6376Z" fill="black"/>
</svg>
